<?xml version="1.0" standalone="no"?>
<!DOCTYPE svg PUBLIC "-//W3C//DTD SVG 20010904//EN"
 "http://www.w3.org/TR/2001/REC-SVG-20010904/DTD/svg10.dtd">
<svg version="1.0" xmlns="http://www.w3.org/2000/svg"
 width="494.000000pt" height="425.000000pt" viewBox="0 0 494.000000 425.000000"
 preserveAspectRatio="xMidYMid meet">

<g transform="translate(0.000000,425.000000) scale(0.100000,-0.100000)"
fill="#000000" stroke="none">
<path d="M2140 4225 c-283 -39 -573 -146 -825 -304 -756 -477 -1085 -1363
-826 -2225 16 -54 34 -103 40 -109 5 -5 25 -7 44 -3 l35 6 -33 103 c-18 56
-45 165 -61 242 -25 125 -28 161 -28 335 0 111 5 229 13 275 64 399 243 757
516 1031 347 348 773 541 1287 584 197 16 441 -8 658 -67 482 -130 902 -441
1152 -853 165 -273 243 -521 268 -852 16 -209 -6 -409 -67 -630 l-27 -98 -123
0 c-68 0 -123 2 -123 4 0 3 26 21 59 40 174 106 244 309 171 499 -30 80 -113
167 -198 209 -62 31 -73 33 -172 33 -99 0 -110 -2 -171 -32 -117 -58 -197
-167 -220 -302 -28 -158 59 -334 204 -411 26 -14 47 -28 47 -32 0 -5 -274 -8
-610 -8 -335 0 -610 3 -610 8 0 4 26 18 57 30 192 79 323 278 323 494 0 242
-150 451 -377 527 -85 28 -226 29 -314 1 -35 -11 -69 -23 -76 -28 -8 -5 -4
-41 15 -137 l27 -131 59 31 c114 58 253 33 334 -59 42 -48 57 -80 72 -150 18
-90 -8 -175 -79 -249 -61 -65 -103 -82 -202 -82 l-87 0 24 -22 c18 -17 24 -33
24 -67 0 -70 6 -78 54 -71 79 12 122 -24 134 -112 l7 -48 858 -3 c614 -1 857
-5 857 -13 0 -6 -18 -50 -40 -97 -116 -246 -290 -471 -492 -634 l-90 -73 53
-3 c29 -2 62 -1 73 2 28 7 209 184 282 276 200 250 313 489 384 805 116 519
14 1056 -283 1500 -315 470 -845 794 -1422 870 -141 18 -441 18 -575 0z m1821
-1966 c77 -23 137 -96 153 -182 15 -79 -50 -190 -130 -223 -136 -57 -293 50
-294 199 0 90 41 154 125 193 56 27 90 29 146 13z"/>
<path d="M3847 2120 c-49 -39 -42 -116 14 -145 42 -22 67 -18 100 14 79 79
-26 200 -114 131z"/>
<path d="M1418 3858 c-39 -17 -52 -29 -73 -71 -14 -28 -25 -63 -25 -77 l0 -27
68 16 c43 9 120 15 213 15 l145 1 -10 27 c-5 14 -26 50 -46 80 -31 46 -39 53
-65 50 -78 -6 -102 -7 -130 0 -21 4 -45 0 -77 -14z"/>
<path d="M1419 3670 c-79 -13 -198 -49 -248 -75 -56 -28 -101 -77 -101 -109 0
-55 71 -105 179 -127 35 -7 73 -21 83 -31 10 -10 22 -18 27 -18 5 0 11 -18 15
-39 5 -35 2 -43 -27 -74 -17 -19 -44 -48 -58 -63 -15 -17 -69 -47 -129 -73
-140 -60 -187 -106 -224 -217 -14 -44 -47 -170 -71 -279 -32 -141 -50 -203
-64 -216 -25 -24 -38 -113 -19 -136 20 -24 12 -354 -9 -367 -12 -6 -14 -20 -8
-70 8 -78 -1 -120 -24 -110 -72 31 -101 10 -101 -73 l0 -53 -37 0 c-64 -1
-126 -17 -140 -36 -7 -10 -13 -35 -13 -56 0 -31 5 -40 30 -53 36 -19 40 -19
40 0 0 18 14 19 41 5 10 -6 19 -21 19 -34 0 -19 14 -31 69 -60 76 -40 91 -43
91 -21 0 35 49 6 54 -32 2 -10 18 -27 35 -37 33 -19 35 -19 229 9 109 15 203
30 210 32 15 6 16 67 1 95 -6 11 -36 31 -67 44 -97 42 -102 46 -102 74 0 36
-16 54 -78 85 -59 31 -66 40 -23 30 l30 -6 -11 37 c-5 20 -21 55 -36 76 -23
36 -24 42 -14 86 6 28 7 48 1 50 -14 6 -11 23 26 139 19 59 35 116 35 125 0 9
11 29 24 45 25 30 49 100 40 115 -8 13 16 98 27 98 8 0 15 -90 12 -170 -1 -19
-1 -80 -1 -135 -1 -55 -1 -109 -1 -120 0 -11 -7 -96 -15 -190 -14 -148 -14
-171 -1 -185 8 -9 18 -31 21 -48 6 -27 16 -36 76 -64 110 -51 108 -44 108
-295 0 -211 0 -214 -23 -237 -23 -23 -100 -46 -155 -46 -39 0 -50 -10 -54 -50
l-3 -35 195 -3 196 -2 18 132 c10 73 31 199 47 281 16 81 29 149 29 152 0 3 4
5 9 5 16 0 49 -181 96 -527 l6 -43 186 0 185 0 -7 113 c-18 316 -65 838 -85
964 -12 73 -13 283 -1 283 5 0 19 -26 32 -57 12 -32 44 -102 71 -156 38 -77
47 -102 38 -113 -9 -10 -7 -21 8 -46 11 -18 22 -52 25 -75 l5 -43 -41 0 c-71
0 -72 -4 -58 -122 16 -140 15 -138 60 -138 44 0 61 14 61 53 0 22 4 27 18 23
9 -3 46 -10 80 -17 51 -10 66 -9 72 1 11 18 30 3 30 -26 0 -13 10 -34 22 -46
13 -13 24 -34 26 -48 4 -29 19 -50 37 -50 8 0 15 -22 20 -58 4 -31 11 -65 17
-75 18 -35 25 -6 12 60 -8 44 -9 72 -3 79 32 38 7 393 -29 422 -22 17 -83 15
-109 -3 -20 -14 -22 -13 -37 19 -9 19 -16 49 -16 68 0 46 -10 78 -25 78 -7 0
-19 33 -29 83 -48 239 -48 239 -36 268 16 38 3 107 -25 133 -19 18 -30 58 -65
231 -70 354 -86 382 -249 464 -80 41 -102 57 -130 97 l-34 49 21 36 c12 20 24
57 28 80 10 63 18 74 66 88 138 41 214 123 178 191 -16 30 -89 67 -167 84 -77
17 -327 21 -414 6z m-5 -633 c19 -28 33 -53 32 -55 -2 -1 -15 3 -30 9 -23 11
-30 10 -54 -7 -56 -42 -55 -43 -51 43 3 56 9 87 23 108 l19 29 13 -37 c7 -21
29 -61 48 -90z m337 19 c27 -57 35 -86 24 -86 -2 0 -16 5 -30 12 -21 10 -29 8
-48 -9 -42 -38 -46 -35 -27 21 11 30 22 72 26 95 4 22 11 38 16 35 6 -4 23
-34 39 -68z m-471 -7 c0 -11 -4 -17 -10 -14 -5 3 -10 13 -10 21 0 8 5 14 10
14 6 0 10 -9 10 -21z m-81 -81 c32 -100 62 -228 56 -239 -12 -19 6 -69 25 -69
22 0 33 -35 16 -50 -7 -5 -18 -56 -25 -112 -16 -130 -45 -258 -73 -317 l-22
-46 -8 185 c-4 102 -10 219 -14 260 l-7 75 -18 -90 c-18 -95 -58 -245 -68
-257 -4 -4 -38 3 -76 17 -39 14 -80 25 -93 25 -41 0 -40 10 39 340 38 159 62
219 102 258 28 27 118 80 139 81 3 1 16 -27 27 -61z m711 15 c46 -30 82 -68
101 -105 20 -39 123 -518 113 -527 -10 -10 -158 -60 -165 -55 -4 2 -5 90 -4
196 4 204 -2 191 -26 -61 -12 -130 -14 -140 -25 -110 -6 19 -19 88 -29 154
-10 66 -21 124 -26 130 -14 15 -10 55 5 55 11 0 13 29 8 170 -5 185 -4 189 48
153z m-452 -55 c85 -57 102 -94 102 -214 l0 -94 -99 0 c-97 0 -99 0 -103 25
-3 13 0 26 6 28 14 5 9 57 -8 76 -14 17 -53 158 -45 164 23 18 77 47 87 47 7
0 34 -14 60 -32z m322 -85 c0 -45 -4 -85 -10 -88 -5 -3 -10 -24 -10 -46 0 -21
5 -39 10 -39 6 0 10 -11 10 -25 0 -25 0 -25 -95 -25 l-95 0 0 84 c0 47 5 97
10 111 6 15 35 53 66 86 l57 59 28 -17 c28 -17 29 -20 29 -100z m0 -388 c0
-13 -26 -15 -197 -13 -146 2 -197 6 -201 16 -3 9 41 12 197 12 173 0 201 -2
201 -15z m-805 -163 c78 -27 80 -29 79 -60 -3 -62 -6 -64 -81 -37 -37 13 -90
27 -118 32 -50 8 -50 8 -47 43 2 19 6 38 9 43 9 15 81 6 158 -21z m1195 9 c5
-11 10 -30 10 -44 0 -21 -10 -27 -101 -57 -111 -37 -122 -35 -117 25 3 28 9
32 88 62 101 38 106 39 120 14z m-1230 -129 c35 -12 56 -24 58 -35 4 -18 -65
-266 -77 -280 -4 -4 -27 -4 -52 -1 l-44 6 3 142 c1 77 5 151 7 164 6 27 28 28
105 4z m1256 -152 c18 -85 30 -157 27 -160 -2 -2 -21 -10 -42 -16 l-38 -11
-56 116 c-61 128 -82 180 -76 186 13 12 108 44 128 42 24 -2 27 -10 57 -157z
m-1458 -403 c6 -5 12 -20 12 -32 0 -37 36 -71 104 -100 71 -30 63 -32 131 19
9 6 22 4 39 -7 23 -16 26 -24 26 -77 0 -47 -3 -60 -15 -60 -11 0 -15 12 -15
49 0 59 -11 69 -46 42 -15 -12 -41 -21 -58 -21 -45 0 -150 53 -177 89 -12 17
-29 31 -36 31 -9 0 -13 14 -13 45 0 38 3 43 18 38 9 -3 23 -10 30 -16z"/>
<path d="M2212 3488 c-7 -7 -12 -27 -12 -45 0 -27 6 -37 31 -51 36 -20 37 9
-15 -297 -36 -210 -45 -235 -82 -235 -21 0 -25 -18 -14 -59 l10 -40 58 21 c84
30 252 36 340 13 154 -41 285 -137 366 -268 67 -109 91 -190 91 -317 0 -58 -2
-118 -5 -135 l-5 -30 230 0 230 0 8 65 c36 298 365 489 636 369 24 -10 45 -19
46 -19 1 0 10 47 20 104 26 153 13 178 -121 217 -93 27 -220 55 -334 73 -52 9
-110 19 -127 22 l-33 5 0 140 c0 115 -3 141 -15 145 -12 5 -15 25 -15 91 0 76
2 86 25 109 26 26 35 84 14 84 -26 0 -82 -45 -95 -76 -8 -20 -14 -68 -14 -118
0 -65 -3 -85 -15 -90 -12 -4 -15 -29 -15 -139 l0 -134 -52 5 c-29 2 -56 7 -60
11 -3 3 -13 40 -22 81 -9 41 -30 134 -46 205 -46 196 -45 185 -26 185 24 0 56
37 56 64 0 57 13 56 -529 56 -373 0 -500 -3 -509 -12z m366 -357 l2 -244 -37
8 c-21 4 -90 9 -153 11 -102 4 -115 6 -113 22 7 77 77 439 86 444 7 5 57 7
112 6 l100 -3 3 -244z m507 237 c4 -3 28 -102 54 -220 l48 -213 -39 -39 -39
-39 -39 38 c-22 22 -40 44 -40 50 0 6 14 24 30 40 34 32 38 50 13 59 -12 5
-40 -16 -100 -76 -46 -45 -83 -88 -83 -96 0 -26 31 -24 61 4 l30 28 46 -46
c44 -44 46 -49 35 -73 -14 -31 -12 -35 61 -155 26 -42 49 -94 53 -117 l7 -43
-77 0 -77 0 -21 48 c-50 114 -159 231 -283 302 l-55 31 0 259 c0 188 3 259 12
262 19 7 396 3 403 -4z"/>
<path d="M2329 2295 c-14 -7 -33 -29 -43 -48 -40 -73 12 -157 99 -157 37 0 47
5 74 35 81 93 -22 229 -130 170z"/>
<path d="M450 1240 c0 -123 1 -132 23 -152 31 -29 378 -228 398 -228 39 0 385
63 394 71 6 6 12 73 13 149 3 115 1 140 -10 140 -8 0 -100 -13 -205 -30 -176
-27 -194 -28 -227 -15 -46 19 -46 19 -46 -10 0 -45 -47 -18 -52 30 -3 26 -13
35 -85 73 l-83 43 0 -26 c0 -14 -6 -25 -13 -25 -21 0 -37 22 -37 50 0 18 -9
31 -29 43 -16 9 -32 17 -35 17 -3 0 -6 -59 -6 -130z"/>
<path d="M834 548 c-62 -16 -133 -74 -166 -137 -23 -43 -28 -66 -28 -120 0
-227 231 -348 458 -240 l42 21 0 109 0 109 -45 0 -45 0 0 -84 0 -84 -45 -18
c-61 -23 -137 -14 -189 23 -85 60 -108 182 -51 264 70 98 195 113 308 36 16
-10 22 -8 42 18 23 28 23 30 7 48 -47 53 -191 80 -288 55z"/>
<path d="M2013 550 c-86 -20 -168 -99 -192 -185 -36 -131 15 -251 139 -323 39
-23 56 -27 130 -27 71 0 94 4 141 26 72 34 122 95 145 176 16 58 16 66 0 130
-18 75 -51 123 -112 165 -61 42 -167 58 -251 38z m142 -81 c60 -17 122 -85
131 -146 8 -53 -7 -121 -34 -159 -9 -13 -41 -36 -70 -50 -188 -94 -368 142
-229 301 50 56 122 76 202 54z"/>
<path d="M178 383 c-42 -93 -96 -212 -122 -265 l-45 -98 52 0 53 0 21 58 20
57 145 3 145 3 27 -61 27 -60 50 0 c27 0 49 1 49 3 0 5 -196 431 -222 485 -21
41 -22 42 -73 42 l-52 0 -75 -167z m185 -51 c26 -56 47 -104 47 -107 0 -3 -45
-5 -100 -5 -65 0 -100 4 -100 11 0 6 16 47 36 92 20 45 40 93 45 106 12 31 16
26 72 -97z"/>
<path d="M1270 285 l0 -265 51 0 51 0 -4 80 -3 80 77 0 78 0 52 -80 53 -80 53
0 c59 0 59 -3 3 74 -74 101 -73 97 -30 128 50 36 69 75 69 143 0 60 -14 97
-52 132 -47 44 -88 53 -248 53 l-150 0 0 -265z m305 175 c33 -12 59 -71 51
-115 -4 -17 -18 -43 -32 -56 -23 -21 -36 -24 -124 -27 l-98 -4 -4 79 c-2 43
-2 90 0 106 l3 27 89 0 c49 0 100 -4 115 -10z"/>
<path d="M2440 543 c0 -7 152 -470 167 -510 3 -8 23 -13 58 -13 l53 0 62 187
c35 104 66 192 70 197 5 4 11 -3 15 -15 9 -31 91 -272 111 -327 l16 -42 51 0
52 0 84 253 c46 138 86 258 89 265 3 8 -9 12 -41 12 l-46 0 -18 -52 c-11 -29
-41 -119 -69 -200 -27 -81 -52 -144 -57 -139 -4 4 -36 93 -70 197 l-64 189
-45 3 -46 3 -20 -53 c-10 -29 -41 -119 -68 -200 -27 -81 -51 -148 -54 -148 -3
0 -35 89 -71 198 l-65 197 -47 3 c-26 2 -47 0 -47 -5z"/>
<path d="M3360 285 l0 -265 205 0 205 0 0 40 0 40 -158 0 -158 0 3 62 c2 35 5
69 6 77 2 12 26 14 130 12 l127 -2 0 40 0 40 -132 3 -132 3 -1 67 0 68 153 0
152 0 0 40 0 40 -200 0 -200 0 0 -265z"/>
<path d="M3880 285 l0 -265 50 0 50 0 0 80 0 80 75 0 75 0 52 -80 53 -80 54 0
53 0 -18 28 c-10 15 -38 54 -62 87 -39 53 -42 61 -27 70 67 39 95 87 95 159 0
60 -19 105 -59 139 -46 39 -90 47 -248 47 l-143 0 0 -265z m304 174 c39 -18
61 -73 47 -119 -19 -64 -40 -75 -152 -78 l-99 -4 0 106 0 106 90 0 c49 0 100
-5 114 -11z"/>
<path d="M4450 285 l0 -265 45 0 45 0 0 64 c0 62 2 66 43 110 23 25 47 46 52
46 6 -1 50 -50 99 -110 l89 -110 53 0 c50 0 68 10 44 25 -5 3 -57 65 -115 136
-123 152 -127 117 24 272 l96 97 -56 0 -56 0 -131 -134 c-72 -73 -134 -131
-137 -128 -3 3 -5 63 -5 134 l0 128 -45 0 -45 0 0 -265z"/>
</g>
</svg>
